<svg xmlns="http://www.w3.org/2000/svg" version="1.1" xmlns:xlink="http://www.w3.org/1999/xlink" xmlns:svgjs="http://svgjs.com/svgjs" width="1440" height="560" preserveAspectRatio="none" viewBox="0 0 1440 560"><g mask="url(&quot;#SvgjsMask1001&quot;)" fill="none"><rect width="1440" height="560" x="0" y="0" fill="rgba(93, 161, 231, 1)"></rect><path d="M0,377.304C69.376,375.053,118.678,312.591,173.665,270.228C223.91,231.518,271.421,192.603,307.476,140.42C349.744,79.244,405.276,16.65,400.121,-57.529C394.913,-132.471,334.165,-190.439,280.808,-243.321C230.542,-293.139,173.261,-341.204,103.277,-351.728C36.592,-361.756,-21.545,-311.724,-87.718,-298.739C-163.163,-283.935,-251.871,-318.304,-311.896,-270.26C-372.494,-221.757,-387.195,-133.72,-390.762,-56.183C-394.137,17.171,-370.011,88.901,-331.291,151.295C-295.599,208.81,-236.979,243.59,-181.062,281.737C-123.521,320.992,-69.619,379.563,0,377.304" fill="#2580df"></path><path d="M1440 960.326C1518.237 959.1120000000001 1609.554 964.819 1664.123 908.742 1718.7269999999999 852.629 1685.148 757.515 1709.704 683.17 1730.4769999999999 620.279 1794.762 574.999 1796.23 508.782 1797.776 439.028 1769.356 366.288 1717.769 319.312 1667.783 273.795 1594.226 270.973 1527.02 263.638 1469.516 257.362 1414.079 266.691 1357.792 280.024 1298.434 294.084 1241.289 310.29200000000003 1190.086 343.449 1123.95 386.276 1033.979 422.11699999999996 1018.9300000000001 499.459 1003.981 576.288 1086.627 635.335 1119.468 706.3820000000001 1152.1100000000001 777 1150.383 867.456 1211.362 915.767 1273.481 964.982 1360.758 961.556 1440 960.326" fill="#95c2ef"></path></g><defs><mask id="SvgjsMask1001"><rect width="1440" height="560" fill="#ffffff"></rect></mask></defs></svg>