<svg id="visual" viewBox="0 0 960 540" width="960" height="540" xmlns="http://www.w3.org/2000/svg" xmlns:xlink="http://www.w3.org/1999/xlink" version="1.1"><path d="M0 322L14.5 339C29 356 58 390 87.2 398C116.3 406 145.7 388 174.8 365.8C204 343.7 233 317.3 262 330.7C291 344 320 397 349 395.3C378 393.7 407 337.3 436.2 284C465.3 230.7 494.7 180.3 523.8 174.3C553 168.3 582 206.7 611 246.8C640 287 669 329 698 335C727 341 756 311 785.2 272.7C814.3 234.3 843.7 187.7 872.8 203.5C902 219.3 931 297.7 945.5 336.8L960 376L960 541L945.5 541C931 541 902 541 872.8 541C843.7 541 814.3 541 785.2 541C756 541 727 541 698 541C669 541 640 541 611 541C582 541 553 541 523.8 541C494.7 541 465.3 541 436.2 541C407 541 378 541 349 541C320 541 291 541 262 541C233 541 204 541 174.8 541C145.7 541 116.3 541 87.2 541C58 541 29 541 14.5 541L0 541Z" fill="#4FACF7" stroke-linecap="round" stroke-linejoin="miter"></path></svg>