<svg id="visual" viewBox="0 0 960 540" width="960" height="540" xmlns="http://www.w3.org/2000/svg" xmlns:xlink="http://www.w3.org/1999/xlink" version="1.1"><rect x="0" y="0" width="960" height="540" fill="#FFFFFF"></rect><path d="M0 184L20 181.2C40 178.3 80 172.7 120 167C160 161.3 200 155.7 240 145.7C280 135.7 320 121.3 360 120.5C400 119.7 440 132.3 480 153.3C520 174.3 560 203.7 600 198.5C640 193.3 680 153.7 720 134.8C760 116 800 118 840 129C880 140 920 160 940 170L960 180L960 0L940 0C920 0 880 0 840 0C800 0 760 0 720 0C680 0 640 0 600 0C560 0 520 0 480 0C440 0 400 0 360 0C320 0 280 0 240 0C200 0 160 0 120 0C80 0 40 0 20 0L0 0Z" fill="#4FACF7" stroke-linecap="round" stroke-linejoin="miter"></path></svg>