<svg xmlns="http://www.w3.org/2000/svg" version="1.1" xmlns:xlink="http://www.w3.org/1999/xlink" xmlns:svgjs="http://svgjs.com/svgjs" width="1440" height="560" preserveAspectRatio="none" viewBox="0 0 1440 560"><g mask="url(&quot;#SvgjsMask1967&quot;)" fill="none"><rect width="1440" height="560" x="0" y="0" fill="url(#SvgjsLinearGradient1968)"></rect><path d="M1440 0L1085.96 0L1440 107.28z" fill="rgba(255, 255, 255, .1)"></path><path d="M1085.96 0L1440 107.28L1440 186.61L1071.65 0z" fill="rgba(255, 255, 255, .075)"></path><path d="M1071.65 0L1440 186.61L1440 389.07000000000005L868.3500000000001 0z" fill="rgba(255, 255, 255, .05)"></path><path d="M868.3499999999999 0L1440 389.07000000000005L1440 402.68000000000006L751.54 0z" fill="rgba(255, 255, 255, .025)"></path><path d="M0 560L556.49 560L0 520.53z" fill="rgba(0, 0, 0, .1)"></path><path d="M0 520.53L556.49 560L921.74 560L0 492.08z" fill="rgba(0, 0, 0, .075)"></path><path d="M0 492.08L921.74 560L1046.58 560L0 368.86z" fill="rgba(0, 0, 0, .05)"></path><path d="M0 368.86L1046.58 560L1289.32 560L0 280.62z" fill="rgba(0, 0, 0, .025)"></path></g><defs><mask id="SvgjsMask1967"><rect width="1440" height="560" fill="#ffffff"></rect></mask><linearGradient x1="84.72%" y1="139.29%" x2="15.28%" y2="-39.29%" gradientUnits="userSpaceOnUse" id="SvgjsLinearGradient1968"><stop stop-color="#0e2a47" offset="0"></stop><stop stop-color="rgba(107, 221, 241, 1)" offset="1"></stop></linearGradient></defs></svg>