<svg xmlns="http://www.w3.org/2000/svg" version="1.1" xmlns:xlink="http://www.w3.org/1999/xlink" xmlns:svgjs="http://svgjs.com/svgjs" width="1440" height="560" preserveAspectRatio="none" viewBox="0 0 1440 560"><g mask="url(&quot;#SvgjsMask1079&quot;)" fill="none"><rect width="1440" height="560" x="0" y="0" fill="rgba(135, 222, 237, 0.99)"></rect><path d="M -1314.2911531134857,184 C -1170.29,232.2 -882.29,417 -594.2911531134857,425 C -306.29,433 -162.29,210.8 125.70884688651427,224 C 413.71,237.2 582.85,509.8 845.7088468865143,491 C 1108.57,472.2 1321.14,202.2 1440,130" stroke="rgba(86, 111, 183, 0.76)" stroke-width="2"></path><path d="M -1243.3924802501963,265 C -1099.39,288 -811.39,413.2 -523.3924802501963,380 C -235.39,346.8 -91.39,113.6 196.6075197498037,99 C 484.61,84.4 667.93,307 916.6075197498037,307 C 1165.29,307 1335.32,140.6 1440,99" stroke="rgba(86, 111, 183, 0.76)" stroke-width="2"></path><path d="M -102.24198672266982,233 C 41.76,264.2 329.76,392 617.7580132773302,389 C 905.76,386 1049.76,226.6 1337.75801327733,218 C 1625.76,209.4 2037.31,356.4 2057.75801327733,346 C 2078.21,335.6 1563.55,202 1440,166" stroke="rgba(86, 111, 183, 0.76)" stroke-width="2"></path><path d="M -335.0188747748793,69 C -191.02,114.4 96.98,275 384.9811252251207,296 C 672.98,317 816.98,140.8 1104.9811252251206,174 C 1392.98,207.2 1757.98,441.8 1824.9811252251206,462 C 1891.98,482.2 1517,312.4 1440,275" stroke="rgba(86, 111, 183, 0.76)" stroke-width="2"></path></g><defs><mask id="SvgjsMask1079"><rect width="1440" height="560" fill="#ffffff"></rect></mask></defs></svg>